<svg xmlns="http://www.w3.org/2000/svg" viewBox="0 0 512 512" role="img" aria-labelledby="title description">
  <title id="title">CifraInk</title>
  <desc id="description">Folha de cifra branca com cordas de violão e uma gota de tinta sobre um fundo laranja.</desc>
  <defs>
    <linearGradient id="background" x1="72" y1="38" x2="438" y2="474" gradientUnits="userSpaceOnUse">
      <stop stop-color="#ffb21a" />
      <stop offset=".52" stop-color="#ff8614" />
      <stop offset="1" stop-color="#f45a12" />
    </linearGradient>
    <linearGradient id="paper" x1="176" y1="114" x2="348" y2="398" gradientUnits="userSpaceOnUse">
      <stop stop-color="#fff" />
      <stop offset="1" stop-color="#fff7ec" />
    </linearGradient>
    <filter id="shadow" x="70" y="42" width="400" height="448" filterUnits="userSpaceOnUse" color-interpolation-filters="sRGB">
      <feDropShadow dx="0" dy="18" stdDeviation="18" flood-color="#7a2400" flood-opacity=".24" />
    </filter>
  </defs>
  <rect x="20" y="20" width="472" height="472" rx="112" fill="url(#background)" />
  <g transform="translate(256 256) scale(.82) translate(-256 -256)">
    <g filter="url(#shadow)">
      <path fill="url(#paper)" d="M150 108C150 93.64 161.64 82 176 82H310L382 154V394C382 408.36 370.36 420 356 420H176C161.64 420 150 408.36 150 394Z" />
      <path fill="#ffe0b2" d="M310 82 382 154H329C318.51 154 310 145.49 310 135Z" />
      <path fill="#f5b45b" d="M310 82V135C310 145.49 318.51 154 329 154H382L374 146H329C322.92 146 318 141.08 318 135V90Z" />
    </g>
    <g fill="none" stroke="#262626" stroke-width="12" stroke-linecap="round">
      <path d="M199 195H333M199 239H333M199 283H333M199 327H288" />
    </g>
    <g fill="#f46a12">
      <circle cx="226" cy="195" r="14" />
      <circle cx="296" cy="239" r="14" />
      <circle cx="252" cy="283" r="14" />
    </g>
    <path fill="#262626" d="M340 315S297 363.64 297 389.5C297 413.52 316.25 433 340 433S383 413.52 383 389.5C383 363.64 340 315 340 315Z" />
    <path fill="none" stroke="#fff" stroke-opacity=".82" stroke-width="9" stroke-linecap="round" d="M331 403C319.54 403 313 396.58 313 386.3" />
  </g>
</svg>
